<svg xmlns="http://www.w3.org/2000/svg" width="119" height="35"><title>Artboard</title><desc>Created with Sketch.</desc><g fill="none"><g><g><g><g><g><g><path id="Shape" fill="#694981" d="M99.65 25.45c-.08 0-.14 0-.17 0-3.23 0-5.85-2.6-5.85-5.77 0-3.18 2.63-5.76 5.87-5.76 3.23 0 5.86 2.58 5.86 5.76 0 .32-.26.58-.6.58h-9.9c.27 2.27 2.25 4.04 4.64 4.04 0 0 .03 0 .04 0 .1 0 2.54.14 4.07-2.3.18-.27.54-.35.82-.2.28.17.37.53.2.8-1.66 2.66-4.24 2.85-4.97 2.85zm-4.8-6.34h9.3c-.3-2.27-2.27-4.04-4.65-4.04-2.4 0-4.36 1.77-4.65 4.05zM112.78 25.45c-.08 0-.14 0-.18 0-3.22 0-5.84-2.6-5.84-5.77 0-3.18 2.63-5.76 5.86-5.76 3.24 0 5.87 2.58 5.87 5.76 0 .32-.27.58-.6.58h-9.92c.28 2.27 2.26 4.04 4.64 4.04.02 0 .03 0 .05 0 .1 0 2.54.14 4.07-2.3.1-.17.3-.28.52-.27.2 0 .4.12.5.3.1.17.1.4 0 .57-1.67 2.66-4.25 2.85-4.98 2.85zm-4.8-6.34h9.3c-.3-2.27-2.27-4.04-4.66-4.04-2.38 0-4.36 1.77-4.64 4.05zM41.94 13.88c-1.92 0-3.63.9-4.72 2.3v-6.02c0-.2-.1-.4-.3-.5-.18-.1-.4-.1-.6 0-.17.1-.28.3-.28.5v9.37c0 .04 0 .1 0 .13 0 .05 0 .1 0 .14v5.1c0 .22.1.4.3.5.18.1.4.1.6 0 .17-.1.28-.28.28-.5v-1.76c1.1 1.4 2.8 2.3 4.72 2.3 3.25 0 5.9-2.58 5.9-5.78s-2.65-5.78-5.9-5.78zm0 10.43c-2.55 0-4.62-2-4.72-4.5v-.28c.1-2.5 2.17-4.5 4.72-4.5 2.6 0 4.72 2.08 4.72 4.64 0 2.57-2.12 4.65-4.72 4.65zM86.35 13.88c-1.93 0-3.62.9-4.7 2.3v-6.02c0-.3-.27-.57-.6-.57-.33 0-.6.25-.6.56v9.37c0 .04 0 .1 0 .13 0 .05 0 .1 0 .14v5.1c0 .33.27.58.6.58.33 0 .6-.25.6-.57v-1.76c1.08 1.4 2.77 2.3 4.7 2.3 3.25 0 5.9-2.58 5.9-5.78s-2.65-5.78-5.9-5.78zm0 10.43c-2.56 0-4.65-2-4.7-4.5v-.28c.05-2.5 2.14-4.5 4.7-4.5 2.6 0 4.7 2.08 4.7 4.64 0 2.57-2.1 4.65-4.7 4.65zM60.47 13.74c-.33 0-.6.26-.6.57v1.94c-1.08-1.43-2.8-2.36-4.75-2.36-3.25 0-5.9 2.6-5.9 5.78 0 3.2 2.65 5.8 5.9 5.8 1.95 0 3.67-.94 4.76-2.37v1.8c0 .33.26.58.6.58.32 0 .58-.25.58-.57V14.33c0-.16-.06-.3-.17-.4-.12-.12-.27-.18-.43-.18zM55.12 24.3c-2.6 0-4.7-2.07-4.7-4.64 0-2.56 2.1-4.64 4.7-4.64s4.72 2.08 4.72 4.64c0 2.57-2.1 4.65-4.72 4.65zM78.9 18.1c-.03-1.12-.47-2.16-1.27-2.94-.82-.8-1.93-1.25-3.1-1.25-1.16 0-2.27.46-3.1 1.25-.26.26-.5.55-.68.87-.2-.32-.4-.6-.68-.86-.82-.8-1.93-1.25-3.1-1.25-1.16 0-2.28.46-3.1 1.25-.03.04-.07.07-.1.1v-.94c0-.3-.27-.56-.6-.56-.32 0-.58.26-.58.57v10.62c0 .3.25.57.58.57.32 0 .6-.27.6-.58v-6.76c0-1.7 1.43-3.1 3.2-3.1.84 0 1.66.32 2.25.9.6.58.93 1.37.93 2.18v6.77c0 .33.26.6.6.6.32 0 .58-.27.58-.6v-6.96c0-.83.33-1.4.94-1.98.6-.58 1.4-.9 2.26-.9.84 0 1.65.32 2.25.9.58.58.92 1.37.9 2.2v6.76c0 .3.28.57.6.57.33 0 .6-.27.6-.58"/><path fill="#694981" d="M16.6 34.48c-1.03 0-2.06-.23-2.86-.67l-10.4-5.74c-1.6-.9-2.86-3-2.86-4.78v-11.6c0-1.8 1.25-3.9 2.85-4.8l10.42-5.85c1.6-.9 4.1-.9 5.7 0L29.9 6.88c1.6.9 2.85 3 2.85 4.8v11.6c0 1.8-1.26 3.9-2.87 4.78l-10.4 5.75c-.8.45-1.83.68-2.86.68zm0-32.98c-.82 0-1.65.17-2.26.52L3.92 7.87c-1.22.7-2.26 2.44-2.26 3.8v11.6c0 1.38 1.04 3.12 2.27 3.8l10.4 5.75c1.23.68 3.32.68 4.55 0l10.4-5.75c1.22-.68 2.26-2.42 2.26-3.8v-11.6c0-1.36-1.03-3.1-2.26-3.8L18.86 2.02c-.6-.35-1.43-.52-2.26-.52zM22.96 12.26c-.48 0-1 .12-1.55.35-.06-2.86-2.13-5-4.86-5-2.58 0-4.67 2.23-4.74 5-.55-.22-1.07-.34-1.56-.34-2.9 0-5.18 2.26-5.18 5.15 0 2.9 2.28 5.17 5.18 5.17.5 0 .95-.12 1.56-.35v.06c0 2.84 2.12 5.16 4.74 5.16 2.78 0 4.87-2.22 4.87-5.16v-.06c.6.23 1.08.35 1.57.35 2.9 0 5.17-2.27 5.17-5.16 0-2.88-2.27-5.14-5.18-5.14zm-9.98.48c0-2.17 1.63-4 3.56-4 2.1 0 3.7 1.72 3.7 4v.5c-.6.35-1.12.8-1.72 1.32-.68.6-1.32 1.25-1.92 1.93-.6-.7-1.24-1.33-1.9-1.94-.62-.53-1.13-.97-1.72-1.32v-.5zM6.25 17.4c0-2.28 1.77-4 4-4 2.1 0 5.28 3.63 5.6 3.98v.07c-.32.36-3.5 3.98-5.6 3.98-2.23 0-4-1.72-4-4zm13.98 4.88c0 2.3-1.6 4-3.7 4-1.92 0-3.55-1.83-3.55-4v-.7c.6-.35 1.1-.78 1.7-1.32.68-.6 1.32-1.24 1.92-1.92.6.68 1.24 1.32 1.92 1.92.6.54 1.12.98 1.7 1.32v.7zm2.73-.86c-2.1 0-5.28-3.62-5.6-3.98l-.02-.03.03-.02c.3-.35 3.48-3.98 5.6-3.98 2.2 0 4 1.72 4 4 0 2.3-1.8 4.02-4 4.02z"/></g></g></g></g></g></g></g></svg>